<svg width="31" height="31" viewBox="0 0 31 31" fill="none" xmlns="http://www.w3.org/2000/svg">
<path d="M15.7672 3.63555C19.7472 3.63555 20.29 3.63555 21.9182 3.63555C23.3655 3.63555 24.0891 3.99738 24.6318 4.17829C25.3555 4.54012 25.8982 4.72103 26.441 5.26376C26.9837 5.8065 27.3455 6.34924 27.5264 7.07288C27.7074 7.61562 27.8883 8.33927 28.0692 9.78656C28.0692 11.4148 28.0692 11.7766 28.0692 15.9376C28.0692 20.0985 28.0692 20.4604 28.0692 22.0886C28.0692 23.5359 27.7074 24.2595 27.5264 24.8023C27.1646 25.5259 26.9837 26.0686 26.441 26.6114C25.8982 27.1541 25.3555 27.5159 24.6318 27.6968C24.0891 27.8778 23.3655 28.0587 21.9182 28.2396C20.29 28.2396 19.9281 28.2396 15.7672 28.2396C11.6062 28.2396 11.2444 28.2396 9.61615 28.2396C8.16886 28.2396 7.44521 27.8778 6.90247 27.6968C6.17883 27.335 5.63609 27.1541 5.09335 26.6114C4.55062 26.0686 4.18879 25.5259 4.00788 24.8023C3.82697 24.2595 3.64606 23.5359 3.46514 22.0886C3.46514 20.4604 3.46514 20.0985 3.46514 15.9376C3.46514 11.7766 3.46514 11.4148 3.46514 9.78656C3.46514 8.33927 3.82697 7.61562 4.00788 7.07288C4.3697 6.34924 4.55062 5.8065 5.09335 5.26376C5.63609 4.72103 6.17883 4.3592 6.90247 4.17829C7.44521 3.99738 8.16886 3.81647 9.61615 3.63555C11.2444 3.63555 11.7871 3.63555 15.7672 3.63555ZM15.7672 0.921875C11.6062 0.921875 11.2444 0.921875 9.61615 0.921875C7.98795 0.921875 6.90247 1.2837 5.99791 1.64552C5.09335 2.00735 4.18879 2.55008 3.28423 3.45464C2.37967 4.3592 2.01785 5.08285 1.47511 6.16832C1.11329 7.07288 0.932377 8.15836 0.751465 9.78656C0.751465 11.4148 0.751465 11.9575 0.751465 15.9376C0.751465 20.0985 0.751465 20.4604 0.751465 22.0886C0.751465 23.7168 1.11329 24.8023 1.47511 25.7068C1.83694 26.6114 2.37967 27.5159 3.28423 28.4205C4.18879 29.3251 4.91244 29.6869 5.99791 30.2296C6.90247 30.5914 7.98795 30.7723 9.61615 30.9533C11.2444 30.9533 11.7871 30.9533 15.7672 30.9533C19.7472 30.9533 20.29 30.9533 21.9182 30.9533C23.5464 30.9533 24.6318 30.5914 25.5364 30.2296C26.441 29.8678 27.3455 29.3251 28.2501 28.4205C29.1546 27.5159 29.5165 26.7923 30.0592 25.7068C30.421 24.8023 30.6019 23.7168 30.7829 22.0886C30.7829 20.4604 30.7829 19.9176 30.7829 15.9376C30.7829 11.9575 30.7829 11.4148 30.7829 9.78656C30.7829 8.15836 30.421 7.07288 30.0592 6.16832C29.6974 5.26376 29.1546 4.3592 28.2501 3.45464C27.3455 2.55008 26.6219 2.18826 25.5364 1.64552C24.6318 1.2837 23.5464 1.10279 21.9182 0.921875C20.29 0.921875 19.9281 0.921875 15.7672 0.921875Z" fill="white"/>
<path d="M15.7672 8.15835C11.4253 8.15835 7.98794 11.5957 7.98794 15.9376C7.98794 20.2795 11.4253 23.7168 15.7672 23.7168C20.109 23.7168 23.5464 20.2795 23.5464 15.9376C23.5464 11.5957 20.109 8.15835 15.7672 8.15835ZM15.7672 21.0031C13.0535 21.0031 10.7016 18.8322 10.7016 15.9376C10.7016 13.2239 12.8726 10.872 15.7672 10.872C18.4808 10.872 20.8327 13.043 20.8327 15.9376C20.8327 18.6512 18.4808 21.0031 15.7672 21.0031Z" fill="white"/>
<path d="M23.7273 9.78656C24.7264 9.78656 25.5364 8.97659 25.5364 7.97744C25.5364 6.97829 24.7264 6.16832 23.7273 6.16832C22.7281 6.16832 21.9182 6.97829 21.9182 7.97744C21.9182 8.97659 22.7281 9.78656 23.7273 9.78656Z" fill="white"/>
</svg>
