<svg width="22" height="22" viewBox="0 0 22 22" fill="none" xmlns="http://www.w3.org/2000/svg">
<path d="M16.8326 18.8822L19.1186 16.5941C19.3979 16.3148 19.5547 15.9409 19.5547 15.5456C19.5547 15.1503 19.4 14.7765 19.1186 14.4972L16.6586 12.0329C16.3793 11.7536 16.0033 11.5968 15.608 11.5968C15.2105 11.5968 14.8389 11.7515 14.5574 12.0329L12.6303 13.9579C11.6085 13.5194 10.6801 12.8893 9.89531 12.1017C9.10254 11.3132 8.47734 10.3915 8.03476 9.36887L9.96191 7.44387C10.2412 7.16458 10.398 6.79075 10.398 6.39543C10.3988 6.20045 10.3606 6.00728 10.2857 5.82725C10.2108 5.64722 10.1007 5.48394 9.96191 5.347L7.50195 2.88059C7.22266 2.60129 6.84668 2.44446 6.45137 2.44446C6.05391 2.44446 5.68223 2.59914 5.40078 2.88059L3.11484 5.16653C2.63789 5.64348 2.36504 6.3009 2.36504 6.97551C2.36504 7.11516 2.37578 7.25051 2.39941 7.38801C2.86777 10.2325 4.38242 13.0556 6.65976 15.3351C8.94141 17.6124 11.7645 19.1249 14.6111 19.5976C15.4189 19.7329 16.2504 19.4622 16.8326 18.8822ZM14.8668 18.0743C12.3338 17.6554 9.80723 16.2933 7.75547 14.2415C5.70371 12.1898 4.3416 9.66536 3.92266 7.13235C3.86895 6.81438 3.97637 6.48782 4.20625 6.25579L6.45137 4.01067L8.83398 6.39114L6.25586 8.96497L6.23652 8.9843L6.4084 9.44836C6.92573 10.8554 7.74284 12.1332 8.80309 13.1931C9.86334 14.253 11.1414 15.0696 12.5486 15.5865L13.0127 15.7583L15.6059 13.163L17.9885 15.5435L15.7434 17.7886C15.5113 18.0206 15.1848 18.1281 14.8668 18.0743Z" fill="#223165"/>
</svg>
